<?xml version="1.0" standalone="no"?>
<!DOCTYPE svg PUBLIC "-//W3C//DTD SVG 1.1//EN" "http://www.w3.org/Graphics/SVG/1.1/DTD/svg11.dtd" >
<svg xmlns="http://www.w3.org/2000/svg">
<metadata>
This is a custom SVG webfont generated by Font Squirrel.
Copyright   : Copyright c 20082011 by Accademia di Belle Arti di Urbino and others All rights reserved
Designer    : Accademia di Belle Arti di Urbino and others
Foundry     : Accademia di Belle Arti di Urbino and others
Foundry URL : wwwcampivisivinet
</metadata>
<defs>
<font id="TitilliumText41LP750wt" horiz-adv-x="1126" >
<font-face units-per-em="2048" ascent="1536" descent="-512" />
<missing-glyph horiz-adv-x="481" />
<glyph unicode=" "  horiz-adv-x="481" />
<glyph unicode="&#x09;" horiz-adv-x="481" />
<glyph unicode="&#xa0;" horiz-adv-x="481" />
<glyph unicode="!" horiz-adv-x="1085" d="M432 1434h246l-23 -926h-198zM434 0v295h242v-295h-242z" />
<glyph unicode="&#x22;" horiz-adv-x="688" d="M76 1419h217l-8 -487h-205zM406 1419h217l-9 -487h-204z" />
<glyph unicode="#" d="M29 350v189h209v278h-209v189h209v350h196v-350h256v350h197v-350h209v-189h-209v-278h209v-189h-209v-350h-197v350h-256v-350h-196v350h-209zM434 539h256v278h-256v-278z" />
<glyph unicode="$" d="M98 1028q0 195 126 295t356 100q70 0 174 -12t174 -25l69 -12l-18 -203q-283 33 -399 33q-256 0 -256 -172q0 -92 60 -132t249 -93q225 -61 310 -143t85 -261q0 -213 -127 -319.5t-348 -106.5l-428 52l25 204q258 -35 401 -34q129 0 188.5 46t59.5 152q0 86 -56.5 128 t-216.5 81q-236 61 -332 149.5t-96 272.5zM389 -248l242 1880h133l-242 -1894q-133 6 -133 14z" />
<glyph unicode="%" d="M31 1145q0 291 245 291q248 0 248 -291q0 -295 -248 -295q-245 0 -245 295zM147 94l723 1331l119 -75l-725 -1332zM199 1145q0 -84 16 -120t61.5 -36t61.5 36t16 120q0 82 -16 116.5t-61.5 34.5t-61.5 -34.5t-16 -116.5zM602 299q0 291 246 291t246 -293 q0 -295 -246 -295t-246 297zM770 299q0 -84 16.5 -121t61.5 -37t61.5 36t16.5 120t-16.5 119t-61.5 35t-61.5 -35t-16.5 -117z" />
<glyph unicode="&#x26;" horiz-adv-x="1433" d="M78 410q0 152 76.5 250t220.5 167q-63 82 -84 141.5t-21 157.5q0 152 104.5 239t287.5 87q193 0 292 -88t99 -256q0 -137 -64.5 -224t-222.5 -186l215 -219q41 152 53 254l217 -4q-31 -215 -96 -389l244 -231l-135 -152l-226 205q-109 -109 -214 -156t-261 -47 q-231 0 -358 118t-127 333zM309 412q0 -115 68.5 -178.5t193.5 -63.5q94 0 162 29.5t137 101.5l-356 371q-205 -90 -205 -260zM496 1096q0 -121 92 -215l39 -41q111 63 154.5 113.5t43.5 131.5q0 156 -163 156q-166 0 -166 -145z" />
<glyph unicode="'" horiz-adv-x="204" d="M-16 1417h219l-10 -491h-205z" />
<glyph unicode="(" horiz-adv-x="532" d="M37 616.5q0 182.5 49 411.5t98 369l52 139h241q-23 -59 -54.5 -158.5t-85.5 -344.5t-54 -417q0 -342 178 -829l16 -43h-241q-23 51 -56 139t-88 319.5t-55 414z" />
<glyph unicode=")" horiz-adv-x="532" d="M37 -256q23 57 54.5 152.5t85.5 333t54 407.5q0 172 -48 396t-97 364l-49 139h242q23 -55 55.5 -147.5t87.5 -331t55 -420.5t-50 -405.5t-99 -354.5l-49 -133h-242z" />
<glyph unicode="*" horiz-adv-x="1085" d="M231 938l218 160l-213 153l81 111l207 -148l86 246l131 -43l-79 -254h258v-131h-261l80 -250l-127 -39l-86 252l-213 -161z" />
<glyph unicode="+" d="M96 414v200h363v367h203v-367h368v-200h-368v-371h-203v371h-363z" />
<glyph unicode="," horiz-adv-x="348" d="M14 -252l99 506h247l-163 -506h-183z" />
<glyph unicode="-" horiz-adv-x="901" d="M137 465v221h625v-221h-625z" />
<glyph unicode="." horiz-adv-x="507" d="M119 0v295h241v-295h-241z" />
<glyph unicode="/" horiz-adv-x="1085" d="M141 37l578 1427l213 -73l-578 -1428z" />
<glyph unicode="0" d="M51 662q0 383 128 544.5t384 161.5t383 -162t127 -544q0 -371 -127 -524.5t-383 -153.5q-258 0 -385 153.5t-127 524.5zM297 662q0 -268 62.5 -367.5t206 -99.5t203.5 99t60 368q0 289 -59 392t-207 103q-145 0 -205.5 -103t-60.5 -392z" />
<glyph unicode="1" d="M238 1061l438 291h213v-1352h-232v1092l-313 -207z" />
<glyph unicode="2" d="M127 0v211l328 330q154 154 216 240.5t62 185.5q0 113 -57.5 152.5t-194.5 39.5l-331 -31l-13 191q209 55 400 55q223 0 328.5 -92t105.5 -285q0 -150 -66.5 -261t-230.5 -257l-285 -264h610v-215h-872z" />
<glyph unicode="3" d="M111 25l24 204q225 -41 395 -41q127 2 186.5 50.5t59.5 154.5q0 180 -229 185h-275v210h273q76 0 139.5 58.5t63.5 132.5q0 102 -53.5 143t-180.5 41l-362 -39l-21 199q225 51 399 51q250 0 352.5 -87t102.5 -275q0 -190 -176 -305q109 -51 157 -111.5t48 -196.5 q0 -213 -108.5 -317.5t-344.5 -104.5q-204 1 -450 48z" />
<glyph unicode="4" d="M70 236v186l356 930h254l-375 -903h373v389h231v-389h148v-213h-148v-236h-231v236h-608z" />
<glyph unicode="5" d="M100 41l25 199q258 -49 434 -50q104 0 166.5 61.5t62.5 178.5q0 111 -61 164t-168 53q-61 0 -124.5 -14.5t-96.5 -28.5l-33 -14l-180 39l45 725h809v-217h-602l-33 -334q141 55 238 55q221 0 332.5 -99.5t111.5 -316.5q0 -223 -121 -344t-338 -121q-211 1 -467 64z" />
<glyph unicode="6" d="M68 674q0 375 141 537.5t407 162.5q76 0 174.5 -9t157.5 -19l60 -11l-21 -211q-199 29 -371 29q-311 0 -311 -358l47 16q45 14 118 30.5t126 16.5q461 0 461 -430q0 -221 -127 -336t-359 -115q-503 1 -503 697zM303 594q4 -399 268 -399q248 0 248 233q0 219 -241 219 q-57 -2 -126 -15.5t-108 -25.5z" />
<glyph unicode="7" d="M135 1137v217h854v-275l-502 -1112l-215 64l480 1052v54h-617z" />
<glyph unicode="8" d="M49 344q0 137 47 211t150 145q-96 63 -135 132t-39 182q0 172 131 266t356 94q223 0 358.5 -94t135.5 -268q0 -121 -38 -183.5t-143 -128.5q104 -68 152.5 -138t48.5 -195q0 -205 -141 -297.5t-373 -92.5q-510 0 -510 367zM297 393q0 -209 262 -209q268 0 268 213 q0 137 -170 195h-196q-164 -58 -164 -199zM319 981q0 -123 142 -193h196q150 70 150 191q0 188 -246 188q-242 0 -242 -186z" />
<glyph unicode="9" d="M68 924q0 215 131 332.5t352 117.5q506 0 506 -696q0 -381 -139.5 -541t-411.5 -160q-76 0 -174.5 9.5t-157.5 19.5l-59 10l20 207q199 -29 371 -28q156 0 234.5 93t78.5 265l-49 -12q-47 -14 -121 -29.5t-127 -15.5q-219 0 -336.5 107.5t-117.5 320.5zM305 924 q0 -217 238 -217q123 0 278 53q-2 180 -68.5 288.5t-201.5 108.5q-115 0 -180.5 -60t-65.5 -173z" />
<glyph unicode=":" horiz-adv-x="425" d="M92 0v295h242v-295h-242zM92 621v294h242v-294h-242z" />
<glyph unicode=";" horiz-adv-x="456" d="M10 -252h180l166 506h-250zM94 621v294h242v-294h-242z" />
<glyph unicode="&#x3c;" d="M143 420v188l840 391v-229l-600 -252l600 -266v-229z" />
<glyph unicode="=" d="M113 209v205h899v-205h-899zM113 616v203h899v-203h-899z" />
<glyph unicode="&#x3e;" d="M143 23v229l600 266l-600 252v229l840 -391v-188z" />
<glyph unicode="?" horiz-adv-x="790" d="M-14 1399q236 61 346 61q233 0 339.5 -88t106.5 -297q0 -125 -34.5 -193.5t-141.5 -158.5q-98 -82 -133 -128t-35 -97v-78h-227q-12 45 -12 139q0 72 37.5 132.5t144.5 154.5q94 80 124.5 126t30.5 113q0 78 -49 116t-164 38q-57 0 -135 -9t-127 -20l-51 -10zM195 0v297 h241v-297h-241z" />
<glyph unicode="@" horiz-adv-x="2017" d="M92 535q0 481 247 716.5t693 235.5q893 0 893 -862v-35q0 -346 -93 -478t-288 -132q-184 0 -254 98q-193 -96 -329 -96q-180 0 -276.5 113.5t-96.5 400.5q0 274 86 410t313 136q33 0 86 -11t90 -23l35 -13v29h223v-410q0 -195 12.5 -283.5t35 -112t75.5 -23.5 q57 0 87 25.5t48.5 113.5t18.5 256v37q0 346 -156 494.5t-510 148.5q-358 0 -536.5 -181.5t-178.5 -553.5q0 -406 164 -573t551 -167l293 19l8 -217q-203 -20 -301 -21q-236 0 -403.5 46t-291.5 154.5t-184.5 296.5t-60.5 462zM813 494q0 -166 43 -229.5t121 -63.5 q92 0 237 53q-16 92 -16 268v279q-104 31 -164 30q-133 0 -177 -71t-44 -266z" />
<glyph unicode="A" horiz-adv-x="1239" d="M49 0l344 1403h457l346 -1403h-231l-74 299h-537l-75 -299h-230zM399 500h445l-170 700h-103z" />
<glyph unicode="B" horiz-adv-x="1249" d="M160 0v1403h532q215 0 322.5 -87t107.5 -278q0 -125 -40 -196.5t-126 -118.5q199 -78 199 -326q0 -397 -446 -397h-549zM391 201h307q113 0 168.5 45t55.5 164q0 199 -228 198h-303v-407zM391 809h299q199 0 199 201q0 100 -51.5 145t-155.5 45h-291v-391z" />
<glyph unicode="C" horiz-adv-x="1095" d="M90 700q0 391 116 558t412 167q180 0 400 -51l-8 -184q-197 35 -361 35q-190 0 -255.5 -110.5t-65.5 -414.5q0 -301 63.5 -411.5t263.5 -110.5q154 0 355 33l6 -188q-211 -45 -398 -46q-158 0 -262 44.5t-162.5 139.5t-81 222t-22.5 317z" />
<glyph unicode="D" horiz-adv-x="1296" d="M160 0v1403h485q168 0 279.5 -43t173 -133t86 -209t24.5 -293q0 -143 -13 -247.5t-51 -199t-100.5 -152.5t-162 -92t-236.5 -34h-485zM391 201h254q82 0 141.5 25.5t95.5 68.5t56 112.5t26.5 142.5t6.5 175q0 252 -63.5 363.5t-262.5 111.5h-254v-999z" />
<glyph unicode="E" horiz-adv-x="1142" d="M160 0v1403h884v-203h-653v-391h531v-201h-531v-407h653v-201h-884z" />
<glyph unicode="F" horiz-adv-x="1114" d="M160 0v1403h872v-203h-641v-469h533v-201h-533v-530h-231z" />
<glyph unicode="G" horiz-adv-x="1228" d="M92 700q0 381 124 553t429 172q96 0 215 -14t191 -27l71 -14l-8 -182q-248 33 -434 33q-207 0 -278.5 -110t-71.5 -411q0 -297 68.5 -409.5t275.5 -112.5q131 0 221 17v340h-172v202h399v-712q-16 -4 -90 -14.5t-188.5 -22t-190.5 -11.5q-319 0 -440 176t-121 547z" />
<glyph unicode="H" horiz-adv-x="1384" d="M160 0v1403h231v-598h602v598h230v-1403h-230v604h-602v-604h-231z" />
<glyph unicode="I" horiz-adv-x="542" d="M156 0v1403h231v-1403h-231z" />
<glyph unicode="J" horiz-adv-x="636" d="M63 57q109 0 148 33t39 146v1167h229l2 -1186q0 -221 -92 -291.5t-326 -70.5v202z" />
<glyph unicode="K" horiz-adv-x="1216" d="M160 0v1403h231v-633l203 16l285 617h266l-342 -731l356 -672h-266l-295 584l-207 -15v-569h-231z" />
<glyph unicode="L" horiz-adv-x="1019" d="M160 0v1403h231v-1182h557v-221h-788z" />
<glyph unicode="M" horiz-adv-x="1738" d="M160 0v1403h377l333 -1077l334 1077h373v-1403h-229v1118h-31l-328 -1061h-237l-332 1061h-29v-1118h-231z" />
<glyph unicode="N" horiz-adv-x="1427" d="M160 0v1403h377l464 -1118h37v1118h230v-1403h-367l-475 1118h-35v-1118h-231z" />
<glyph unicode="O" horiz-adv-x="1325" d="M92 694.5q0 370.5 127 550.5t442.5 180t443.5 -180t128 -551q0 -373 -126 -545t-445 -172q-317 0 -443.5 173.5t-126.5 544zM330 694q0 -276 68.5 -396t263.5 -120q197 0 265 118t68 398q0 276 -70.5 403.5t-263 127.5t-262 -126t-69.5 -405z" />
<glyph unicode="P" horiz-adv-x="1224" d="M160 0v1403h514q479 0 479 -471q0 -242 -121 -370t-358 -128h-283v-434h-231zM391 635h283q244 0 244 297q0 143 -58.5 205.5t-185.5 62.5h-283v-565z" />
<glyph unicode="Q" horiz-adv-x="1325" d="M92 694q0 371 127 551t442.5 180t443.5 -180t128 -551q0 -244 -51.5 -395.5t-171.5 -232.5l172 -277l-213 -100l-183 299q-45 -10 -124 -11q-317 0 -443.5 172t-126.5 545zM330 694.5q0 -278.5 68.5 -397.5t263.5 -119q197 0 265 117t68 399q0 276 -70.5 403.5 t-263 127.5t-262 -126t-69.5 -404.5z" />
<glyph unicode="R" horiz-adv-x="1265" d="M160 0v1403h534q475 0 475 -447q0 -297 -229 -403l231 -553h-253l-201 496h-326v-496h-231zM391 696h305q238 0 238 256q0 248 -240 248h-303v-504z" />
<glyph unicode="S" horiz-adv-x="1087" d="M74 1040q0 197 128 299.5t359 102.5q70 0 176.5 -12.5t175.5 -24.5l72 -12l-18 -207q-287 33 -406 33q-258 0 -258 -175q0 -92 61.5 -134t251.5 -93q229 -63 314.5 -146t85.5 -263q0 -215 -129 -323t-352 -108q-70 0 -177.5 13.5t-181.5 25.5l-74 13l25 207 q260 -35 405 -35q131 0 191.5 47t60.5 153q0 86 -57 129t-219 84q-240 61 -337 150.5t-97 275.5z" />
<glyph unicode="T" horiz-adv-x="993" d="M-16 1182v221h1024v-221h-394v-1182h-231v1182h-399z" />
<glyph unicode="U" horiz-adv-x="1308" d="M137 453v950h232v-950q0 -137 75.5 -204t206.5 -67q135 0 212 67.5t77 203.5v950h229v-950q0 -248 -129 -362t-389 -114q-256 0 -385 114t-129 362z" />
<glyph unicode="V" horiz-adv-x="1236" d="M49 1403h240l280 -1184h99l280 1184h242l-346 -1403h-451z" />
<glyph unicode="W" horiz-adv-x="1892" d="M59 1403h242l231 -1167h43l240 1161h262l242 -1161h41l231 1167h240l-309 -1403h-365l-213 1077l-207 -1077h-364z" />
<glyph unicode="X" horiz-adv-x="1189" d="M43 0l401 688l-401 715h258l295 -537l293 537h258l-395 -715l395 -688h-258l-293 514l-295 -514h-258z" />
<glyph unicode="Y" horiz-adv-x="1153" d="M29 1403h256l293 -539l290 539h256l-430 -797v-606h-229v606z" />
<glyph unicode="Z" horiz-adv-x="1167" d="M123 0v240l631 905v37h-631v221h921v-240l-630 -907v-35h630v-221h-921z" />
<glyph unicode="[" horiz-adv-x="614" d="M68 1534h481v-219h-252v-1348h252v-219h-479z" />
<glyph unicode="\" horiz-adv-x="1112" d="M100 1372l250 109l641 -1432l-248 -104z" />
<glyph unicode="]" horiz-adv-x="614" d="M68 -33h251v1348h-251v219h481v-1786h-481v219z" />
<glyph unicode="^" d="M74 645l389 707h194l396 -707h-236l-254 488l-254 -488h-235z" />
<glyph unicode="_" horiz-adv-x="1064" d="M55 6h877v-205h-877v205z" />
<glyph unicode="`" horiz-adv-x="522" d="M-20 1339l69 193l486 -207l-56 -147z" />
<glyph unicode="a" horiz-adv-x="1075" d="M90 303q0 156 83 225.5t255 83.5l262 23v74q0 80 -36 112.5t-111 32.5q-61 0 -157.5 -5t-162.5 -9l-65 -6l-8 159q221 53 409.5 53.5t271 -80.5t82.5 -257v-467q4 -45 24.5 -65.5t66.5 -29.5l-9 -170q-176 0 -272 76q-162 -76 -328 -76q-305 0 -305 326zM315 309 q0 -150 125 -149q49 0 111.5 12t99.5 25l39 10v268l-235 -22q-140 -13 -140 -144z" />
<glyph unicode="b" horiz-adv-x="1114" d="M154 2v1446h225v-459q139 57 254 58q211 0 303 -117t92 -402q0 -315 -109.5 -433t-388.5 -118q-49 0 -143 6.5t-164 12.5zM379 190q111 -12 151 -12q162 0 217.5 78t55.5 270q0 172 -47 246t-152 74l-225 -33v-623z" />
<glyph unicode="c" horiz-adv-x="892" d="M84 524q0 276 101.5 399.5t328.5 123.5q49 0 126 -9.5t130 -19.5l51 -10l-8 -179q-162 16 -240 17q-156 0 -209 -69.5t-53 -252.5q0 -201 51.5 -273.5t212.5 -72.5l240 17l6 -181q-207 -37 -313 -37q-233 0 -328.5 125t-95.5 422z" />
<glyph unicode="d" horiz-adv-x="1122" d="M86 512q0 276 102.5 405.5t321.5 129.5q74 0 233 -27v428h224v-1448h-222v51q-150 -74 -274 -74q-203 0 -294 122t-91 413zM309 510q0 -184 48.5 -257t148.5 -75q47 0 106.5 11.5t96.5 23.5l34 12v600q-4 0 -40.5 5.5t-89 10.5t-89.5 5q-113 0 -164 -80t-51 -256z" />
<glyph unicode="e" horiz-adv-x="1038" d="M84 502q0 545 442 545q217 0 324.5 -116t107.5 -353l-14 -160h-633q0 -125 53.5 -184.5t178.5 -59.5l379 19l4 -168q-236 -47 -416 -48q-227 0 -326.5 125.5t-99.5 399.5zM309 590h428q0 152 -48 212t-163 60q-113 0 -164 -63.5t-53 -208.5z" />
<glyph unicode="f" horiz-adv-x="694" d="M43 831v193h119v66q0 219 63.5 301t225.5 82l223 -23l-4 -182q-100 4 -164 4q-70 0 -95.5 -40t-25.5 -145v-63h270v-193h-270v-831h-223v831h-119z" />
<glyph unicode="g" horiz-adv-x="1083" d="M82 -180q0 76 36 130t118 118q-68 47 -68 149q0 47 76 164q-150 86 -150 305q0 184 110.5 271t299.5 87l211 -26l307 8v-182l-160 10q55 -68 56 -168q0 -199 -101.5 -276.5t-316.5 -77.5q-53 0 -90 8q-29 -68 -29 -94q0 -49 37 -63.5t182 -16.5q246 0 336 -64.5 t90 -240.5q0 -172 -127 -254t-346 -82q-246 0 -358.5 63.5t-112.5 231.5zM303 -160q0 -70 57.5 -100.5t194.5 -30.5q246 0 246 139q0 80 -44 101.5t-173 21.5l-201 13q-80 -66 -80 -144zM319 686q0 -90 42 -135t141 -45q102 0 147 43t45 137q0 98 -43 140t-145 42 q-96 0 -141.5 -44t-45.5 -138z" />
<glyph unicode="h" horiz-adv-x="1150" d="M154 0v1448h225v-477q150 76 278 76q205 0 280 -117t75 -381v-549h-224v543q0 166 -35.5 234.5t-146.5 68.5q-49 0 -106.5 -11.5t-89.5 -23.5l-31 -10v-801h-225z" />
<glyph unicode="i" horiz-adv-x="522" d="M150 0v1024h223v-1024h-223zM150 1196v238h223v-238h-223z" />
<glyph unicode="j" horiz-adv-x="534" d="M-57 -297q141 88 180 145.5t39 190.5v985h225v-987q0 -199 -70.5 -296t-285.5 -206zM162 1196v238h225v-238h-225z" />
<glyph unicode="k" horiz-adv-x="1042" d="M154 0v1448h225v-827l125 14l246 389h251l-296 -479l307 -545h-252l-250 428l-131 -14v-414h-225z" />
<glyph unicode="l" horiz-adv-x="526" d="M152 0v1448h223v-1448h-223z" />
<glyph unicode="m" horiz-adv-x="1748" d="M154 0v1024h223v-63q145 86 264 86q176 0 262 -101q184 100 352 101q203 0 279 -115t76 -383v-549h-226v543q0 164 -33.5 233.5t-138.5 69.5q-49 0 -107 -13.5t-91 -25.5l-33 -14q14 -47 14 -263v-530h-223v526q0 182 -32.5 251t-141.5 69q-49 0 -104.5 -13.5 t-83.5 -25.5l-31 -14v-793h-225z" />
<glyph unicode="n" horiz-adv-x="1155" d="M154 0v1024h223v-63q150 86 280 86q205 0 280 -117t75 -381v-549h-224v543q0 166 -34.5 234.5t-145.5 68.5q-53 0 -110.5 -13.5t-87.5 -25.5l-31 -14v-793h-225z" />
<glyph unicode="o" horiz-adv-x="1083" d="M84 518q0 262 105.5 395.5t353.5 133.5q242 0 349 -135.5t107 -393.5q0 -266 -102 -403.5t-354 -137.5t-355.5 136.5t-103.5 404.5zM311 518q0 -186 48.5 -268t183.5 -82t181 82t46 268q0 178 -51 258t-176 80q-131 0 -181.5 -78t-50.5 -260z" />
<glyph unicode="p" horiz-adv-x="1114" d="M154 -440v1464h223v-59q141 82 264 82q203 0 296 -122t93 -403q0 -307 -106.5 -426t-350.5 -119q-102 0 -194 19v-436h-225zM379 195q82 -16 178 -17q141 0 193.5 77t52.5 267q0 324 -203 324q-43 0 -98.5 -15.5t-87.5 -31.5l-35 -15v-589z" />
<glyph unicode="q" horiz-adv-x="1097" d="M84 498q0 268 107.5 407t359.5 139l393 -22v-1462h-223v454q-78 -37 -195 -37q-233 0 -337.5 132.5t-104.5 388.5zM309 498q0 -319 217 -320q43 0 91.5 11.5t74.5 23.5l29 12v613q-113 6 -170 6q-131 0 -186.5 -84t-55.5 -262z" />
<glyph unicode="r" horiz-adv-x="733" d="M154 0v1024h223v-117q143 106 315 140v-218q-184 -35 -313 -108v-721h-225z" />
<glyph unicode="s" horiz-adv-x="1009" d="M102 727q0 162 108.5 239.5t276.5 77.5q68 0 164.5 -11t159.5 -21l63 -13l-4 -188q-244 33 -366 33q-94 0 -135 -25.5t-41 -87.5q0 -49 43 -70.5t174 -42.5q207 -33 284.5 -98t77.5 -217q0 -172 -104.5 -249t-302.5 -77q-63 0 -158.5 11.5t-159.5 23.5l-63 11l8 190 q246 -35 350 -35q111 0 158 26.5t47 92.5q0 53 -38 74.5t-167 44.5q-207 35 -291 97t-84 214z" />
<glyph unicode="t" horiz-adv-x="727" d="M41 831v193h131v297h223v-297h283v-193h-283v-448q0 -125 18.5 -166t94.5 -41l166 8l10 -180q-135 -29 -207 -29q-176 0 -240.5 81t-64.5 302v473h-131z" />
<glyph unicode="u" horiz-adv-x="1146" d="M139 487v537h223v-539q0 -180 31 -243.5t144 -63.5q55 0 112.5 13.5t87.5 25.5l31 14v793h223v-1024h-221v63q-152 -86 -276 -86q-211 0 -283 113.5t-72 396.5z" />
<glyph unicode="v" horiz-adv-x="989" d="M31 1024h233l199 -834h63l205 834h227l-264 -1024h-401z" />
<glyph unicode="w" horiz-adv-x="1542" d="M37 1024h223l158 -834h43l192 814h236l190 -814h43l160 834h221l-213 -1024h-364l-158 698l-158 -698h-358z" />
<glyph unicode="x" horiz-adv-x="950" d="M35 0l295 510l-295 514h239l201 -352l201 352h239l-297 -514l297 -510h-239l-201 348l-201 -348h-239z" />
<glyph unicode="y" horiz-adv-x="991" d="M31 1024h221l215 -834h55l217 834h222l-388 -1464h-221l115 440h-168z" />
<glyph unicode="z" horiz-adv-x="978" d="M109 0v203l491 618h-491v203h759v-203l-489 -618h489v-203h-759z" />
<glyph unicode="{" horiz-adv-x="665" d="M37 545v188q113 29 154.5 74t41.5 127q0 27 -7 123t-7 137q0 190 98.5 270t323.5 88l2 -219q-111 -8 -146.5 -39.5t-35.5 -115.5q0 -35 7 -131.5t7 -124.5q0 -123 -45 -183.5t-160 -97.5q113 -37 159 -102.5t46 -188.5q0 -25 -7 -111.5t-7 -127.5q0 -84 37 -119t145 -43 l-2 -219q-221 8 -321.5 91t-100.5 265q0 43 7 134t7 114q0 82 -41.5 131t-154.5 80z" />
<glyph unicode="|" horiz-adv-x="1085" d="M418 -383v1892h229v-1892h-229z" />
<glyph unicode="}" horiz-adv-x="665" d="M37 -51q109 8 145.5 43t36.5 119q0 37 -7 122.5t-7 116.5q0 123 46 188.5t159 102.5q-115 37 -160 97.5t-45 183.5q0 29 7 125t7 131q0 84 -36 115.5t-146 39.5v219q225 -8 323.5 -88t98.5 -270q0 -41 -7.5 -137t-7.5 -123q0 -80 42 -126t157 -75v-188q-113 -31 -156 -81 t-43 -130q0 -23 7.5 -114t7.5 -134q0 -182 -100.5 -265t-321.5 -91v219z" />
<glyph unicode="~" d="M121 569q127 106 246 107q59 0 212.5 -52.5t198.5 -52.5q35 0 87.5 21.5t86.5 42.5l35 20l19 -180q-12 -12 -35 -29.5t-83.5 -47t-113.5 -29.5q-59 0 -218 53t-196 53q-41 0 -96 -22.5t-88 -42.5l-35 -23z" />
<glyph unicode="&#xa1;" horiz-adv-x="1085" d="M434 -412l23 926h198l25 -926h-246zM436 727v295h242v-295h-242z" />
<glyph unicode="&#xa2;" d="M193 510q0 422 368 448v222h191v-230l178 -20l-8 -195q-172 8 -250 8q-141 0 -195.5 -50t-54.5 -183q0 -135 54 -183t202 -48l246 10l6 -195q-94 -12 -178 -20v-234h-189v226q-186 10 -278 114.5t-92 329.5z" />
<glyph unicode="&#xa3;" d="M141 0v195h160v487h-133v195h133v133q0 217 92 300t254 83q49 0 116.5 -7.5t110.5 -13.5l44 -8v-193q-166 20 -265 21q-72 0 -101.5 -43t-29.5 -152v-120h328v-195h-328v-487h279l149 32l35 -190l-166 -35z" />
<glyph unicode="&#xa4;" d="M76 182l215 215l153 -153l-215 -215zM76 850l153 154l215 -216l-153 -155zM176 516q0 160 112.5 274.5t274.5 114.5t274.5 -114.5t112.5 -274.5t-112.5 -274.5t-274.5 -114.5t-274.5 114.5t-112.5 274.5zM381 516q0 -78 51 -131q53 -53 130 -53t130 53t53 131t-53 129 q-53 53 -130 53t-130 -53q-51 -51 -51 -129zM680 244l156 153l215 -215l-154 -153zM680 788l217 216l154 -154l-215 -217z" />
<glyph unicode="&#xa5;" d="M14 1352h256l295 -484l291 484h256l-317 -547h223v-189h-330l-6 -38v-74h336v-191h-336v-313h-231v313h-342v191h342v74l-7 38h-335v189h227z" />
<glyph unicode="&#xa6;" horiz-adv-x="1085" d="M416 -385v827h229v-827h-229zM416 705v831h229v-831h-229z" />
<glyph unicode="&#xa7;" horiz-adv-x="1085" d="M117 471q0 74 42 154t85 114q-90 66 -90 224q0 354 421 354q63 0 150.5 -11.5t142.5 -21.5l58 -10l-11 -182q-227 31 -325 30q-123 0 -171 -34.5t-48 -120.5q0 -66 59 -96.5t225 -65.5q182 -41 251 -100.5t69 -204.5q0 -137 -98 -279q41 -35 59 -81t18 -134 q0 -188 -102 -274t-320 -86q-61 0 -154 10t-157 20l-61 11l22 182q221 -31 334 -31q223 0 223 154q0 72 -54 98.5t-239 67.5q-180 41 -254.5 105.5t-74.5 207.5zM342 512q0 -72 35 -101.5t133 -52.5q123 -29 195 -55q12 16 27.5 68.5t15.5 97.5q0 68 -41 97.5t-154 56.5 q-158 39 -162 41q-49 -74 -49 -152z" />
<glyph unicode="&#xa8;" horiz-adv-x="522" d="M-47 1257v234h215v-234h-215zM383 1257v234h215v-234h-215z" />
<glyph unicode="&#xa9;" horiz-adv-x="1085" d="M18 887q0 231 149.5 390t375.5 159q229 0 376.5 -161t147.5 -386q0 -231 -147.5 -388t-380.5 -157q-219 0 -370 158t-151 385zM131 889q0 -180 118 -305t292 -125q178 0 295.5 125t117.5 305q0 178 -118.5 305t-292.5 127q-176 0 -294 -127t-118 -305zM289 895 q0 158 60.5 233.5t197.5 75.5q41 0 80 -3t57 -5l18 -4l-2 -178q-63 12 -153 12q-84 0 -84 -131q0 -143 84 -143q39 0 78 3t57 7l18 2v-176q-61 -16 -153 -17q-137 0 -197.5 77t-60.5 247z" />
<glyph unicode="&#xaa;" horiz-adv-x="1060" d="M223 889q0 102 59.5 145t184.5 49l139 9v32q0 53 -94 54l-248 -15l-6 142q152 45 281 45q139 0 207.5 -48.5t68.5 -173.5v-256q18 -20 45 -24l-4 -170q-82 0 -128 9t-61.5 20.5t-31.5 33.5q-84 -61 -199 -61q-213 0 -213 209zM432 895q0 -61 64 -61q25 0 52 9t42 17l16 8 v101l-106 -6q-37 -4 -52.5 -18.5t-15.5 -49.5z" />
<glyph unicode="&#xab;" horiz-adv-x="1300" d="M184 418v166l428 317v-227l-237 -170l237 -191v-229zM725 418v166l428 317v-227l-238 -170l238 -191v-229z" />
<glyph unicode="&#xac;" d="M123 518v217h878v-526h-219v309h-659z" />
<glyph unicode="&#xad;" horiz-adv-x="901" d="M137 465v221h625v-221h-625z" />
<glyph unicode="&#xae;" horiz-adv-x="1085" d="M-10 888.5q0 241.5 150.5 406.5t402.5 165t407.5 -165t155.5 -406q0 -238 -157.5 -406t-405.5 -168q-252 0 -402.5 166t-150.5 407.5zM100 889q0 -188 128 -325.5t315 -137.5q184 0 313 136t129 327q0 195 -129 329t-313 134q-188 0 -315.5 -133t-127.5 -330zM299 565 v645h240q123 0 186 -47t63 -155q0 -78 -19 -122t-71 -77l103 -244h-176l-82 221h-80v-221h-164zM461 913h84q84 0 84 84q0 86 -94 86h-74v-170z" />
<glyph unicode="&#xaf;" horiz-adv-x="522" d="M-18 1245v170h577v-170h-577z" />
<glyph unicode="&#xb0;" d="M262 1155q0 133 84 216t217 83t216 -83t83 -216t-83 -216t-216 -83t-217 83t-84 216zM395 1155q0 -76 46 -123t122 -47t124 47t48 123t-48 124t-124 48t-122 -48t-46 -124z" />
<glyph unicode="&#xb1;" d="M96 55v201h934v-201h-934zM96 571v203h363v236h203v-236h368v-203h-368v-227h-203v227h-363z" />
<glyph unicode="&#xb2;" horiz-adv-x="542" d="M35 979v156l164 143q98 86 98 139q0 47 -86 47l-164 -14l-6 168q137 20 227 20q119 0 169 -46t50 -150q0 -119 -120 -215l-97 -84h219v-164h-454z" />
<glyph unicode="&#xb3;" horiz-adv-x="542" d="M45 975l10 160q123 -14 199 -14.5t76 55.5q0 51 -70 51h-135v149h131q25 0 41 14.5t16 39.5q0 47 -71 47l-179 -13l-10 156q131 18 217 18q233 0 234 -176q0 -109 -68 -147q82 -31 82 -154q0 -205 -231 -205q-45 0 -105.5 5.5t-99.5 9.5z" />
<glyph unicode="&#xb4;" horiz-adv-x="548" d="M29 1325l485 207l70 -193l-502 -161z" />
<glyph unicode="&#xb5;" d="M137 -467v1491h223v-575q2 -158 34 -214.5t141 -56.5q43 0 100 13.5t94 25.5l37 14v791h223v-1022h-223v53q-160 -76 -274 -76q-86 0 -132 31v-475h-223z" />
<glyph unicode="&#xb6;" horiz-adv-x="1085" d="M16 1038q0 174 107.5 285t275.5 111h678v-177h-106v-1257h-193v1257h-174v-1257h-192v649h-15q-170 0 -275.5 108.5t-105.5 280.5z" />
<glyph unicode="&#xb7;" horiz-adv-x="507" d="M119 457v295h241v-295h-241z" />
<glyph unicode="&#xb8;" horiz-adv-x="540" d="M72 -455l6 136q72 -4 115 -5q82 0 81 64q0 55 -81 55h-66v207h98v-88q129 -2 186.5 -37t57.5 -137q0 -106 -56.5 -159.5t-156.5 -53.5z" />
<glyph unicode="&#xb9;" horiz-adv-x="542" d="M45 1468l213 150h166v-639h-182v438l-113 -78z" />
<glyph unicode="&#xba;" horiz-adv-x="1077" d="M295 1073q0 276 235 277q119 0 175.5 -66.5t56.5 -210.5q0 -283 -232 -282q-235 -1 -235 282zM365 1073q0 -117 38.5 -167t126.5 -50t125 50t37 167t-37 164t-125 47t-126.5 -48t-38.5 -163z" />
<glyph unicode="&#xbb;" horiz-adv-x="1300" d="M147 84v229l236 191l-236 170v227l428 -317v-166zM688 84v229l236 191l-236 170v227l428 -317v-166z" />
<glyph unicode="&#xbf;" horiz-adv-x="790" d="M43 -53q0 125 35 193.5t141 158.5q98 82 133 128t35 97v78h227q12 -45 13 -139q0 -72 -38 -132.5t-145 -154.5q-94 -80 -124.5 -126t-30.5 -113q0 -78 49 -116t164 -38q57 0 135 10t129 19l49 10l21 -199q-236 -61 -347 -61q-233 0 -339.5 88t-106.5 297zM385 725v297 h242v-297h-242z" />
<glyph unicode="&#xc0;" horiz-adv-x="1236" d="M55 0l344 1403h457l346 -1403h-231l-74 299h-537l-75 -299h-230zM317 1729l76 210l494 -190l-70 -188zM406 500h444l-170 700h-102z" />
<glyph unicode="&#xc1;" horiz-adv-x="1236" d="M55 0l344 1403h457l346 -1403h-231l-74 299h-537l-75 -299h-230zM356 1765l494 191l76 -211l-500 -168zM406 500h444l-170 700h-102z" />
<glyph unicode="&#xc2;" horiz-adv-x="1236" d="M55 0l344 1403h457l346 -1403h-231l-74 299h-537l-75 -299h-230zM252 1620l270 293h205l270 -293h-254l-116 115l-115 -115h-260zM406 500h444l-170 700h-102z" />
<glyph unicode="&#xc3;" horiz-adv-x="1239" d="M49 0l344 1403h457l346 -1403h-231l-74 299h-537l-75 -299h-230zM233 1796q12 14 33 35.5t75 56.5t97 35q63 0 189.5 -48t148.5 -48q49 0 156 84l51 -170q-12 -14 -31.5 -34.5t-73 -55.5t-96.5 -35q-55 0 -184 49t-158 49q-25 0 -63.5 -21.5t-65.5 -43.5l-26 -23z M399 500h445l-170 700h-103z" />
<glyph unicode="&#xc4;" horiz-adv-x="1239" d="M49 0l344 1403h457l346 -1403h-231l-74 299h-537l-75 -299h-230zM340 1649v233h215v-233h-215zM399 500h445l-170 700h-103zM782 1649v233h215v-233h-215z" />
<glyph unicode="&#xc5;" horiz-adv-x="1236" d="M55 0l344 1403h457l346 -1403h-231l-74 299h-537l-75 -299h-230zM346 1495q0 113 80 177.5t201 64.5q119 0 198.5 -64.5t79.5 -177.5q0 -111 -80 -175.5t-198 -64.5q-121 0 -201 63.5t-80 176.5zM406 500h444l-170 700h-102zM520 1495q0 -39 29 -60.5t78 -21.5 q47 0 75.5 21.5t28.5 60.5t-28.5 60.5t-75.5 21.5q-49 0 -78 -21.5t-29 -60.5z" />
<glyph unicode="&#xc6;" horiz-adv-x="1839" d="M92 0l410 1417h1257v-219h-655v-367h532v-219h-532v-393h655v-219h-882v289h-469l-84 -289h-232zM467 510h410l2 688h-213z" />
<glyph unicode="&#xc7;" horiz-adv-x="1099" d="M90 700q0 391 116 558t412 167q180 0 400 -51l-8 -184q-197 35 -361 35q-190 0 -255.5 -110.5t-65.5 -414.5q0 -301 63.5 -411.5t263.5 -110.5q154 0 355 33l6 -188q-211 -45 -398 -46q-158 0 -262 44.5t-162.5 139.5t-81 222t-22.5 317zM481 -455l6 136q72 -4 115 -5 q82 0 82 64q0 55 -82 55h-65v207h98v-88q129 -2 186.5 -37t57.5 -137q0 -106 -56.5 -159.5t-156.5 -53.5z" />
<glyph unicode="&#xc8;" horiz-adv-x="1142" d="M160 0v1403h884v-203h-653v-391h531v-201h-531v-407h653v-201h-884zM305 1729l76 210l493 -190l-69 -188z" />
<glyph unicode="&#xc9;" horiz-adv-x="1171" d="M168 0v1403h885v-203h-654v-391h531v-201h-531v-407h654v-201h-885zM332 1765l493 191l76 -211l-500 -168z" />
<glyph unicode="&#xca;" horiz-adv-x="1171" d="M168 0v1403h885v-203h-654v-391h531v-201h-531v-407h654v-201h-885zM240 1620l270 293h205l270 -293h-254l-117 115l-114 -115h-260z" />
<glyph unicode="&#xcb;" horiz-adv-x="1142" d="M160 0v1403h884v-203h-653v-391h531v-201h-531v-407h653v-201h-884zM301 1649v233h215v-233h-215zM743 1649v233h215v-233h-215z" />
<glyph unicode="&#xcc;" horiz-adv-x="542" d="M-55 1729l75 210l494 -190l-70 -188zM156 0v1403h231v-1403h-231z" />
<glyph unicode="&#xcd;" horiz-adv-x="542" d="M4 1765l494 191l75 -211l-499 -168zM156 0v1403h231v-1403h-231z" />
<glyph unicode="&#xce;" horiz-adv-x="542" d="M-106 1620l270 293h205l270 -293h-254l-117 115l-114 -115h-260zM156 0v1403h231v-1403h-231z" />
<glyph unicode="&#xcf;" horiz-adv-x="542" d="M-55 1649v233h215v-233h-215zM156 0v1403h231v-1403h-231zM387 1649v233h215v-233h-215z" />
<glyph unicode="&#xd0;" horiz-adv-x="1296" d="M37 596v221h641v-221h-641zM160 0v1417h481q168 0 279.5 -43t174 -135t87 -212t24.5 -294q0 -143 -14 -249.5t-51 -201t-99.5 -154.5t-163 -94t-237.5 -34h-481zM387 219h254q82 0 142.5 26.5t95 68.5t55 112t28 140.5t7.5 166.5q0 244 -64.5 355.5t-263.5 111.5h-254 v-981z" />
<glyph unicode="&#xd1;" horiz-adv-x="1427" d="M160 0v1403h377l464 -1118h37v1118h230v-1403h-367l-475 1118h-35v-1118h-231zM332 1796q12 14 32.5 35.5t75 56.5t97.5 35q63 0 189 -48t148 -48q49 0 156 84l51 -170q-12 -14 -31.5 -34.5t-72.5 -55.5t-96 -35q-55 0 -184.5 49t-157.5 49q-25 0 -64 -21.5t-65 -43.5 l-27 -23z" />
<glyph unicode="&#xd2;" horiz-adv-x="1343" d="M100 694.5q0 370.5 127 550.5t442.5 180t443.5 -180t128 -551q0 -373 -126 -545t-445 -172q-317 0 -443.5 173.5t-126.5 544zM338 694q0 -276 68.5 -396t263.5 -120q197 0 265.5 118t68.5 398q0 276 -71 403.5t-263.5 127.5t-262 -126t-69.5 -405zM362 1729l76 210 l494 -190l-70 -188z" />
<glyph unicode="&#xd3;" horiz-adv-x="1343" d="M100 694.5q0 370.5 127 550.5t442.5 180t443.5 -180t128 -551q0 -373 -126 -545t-445 -172q-317 0 -443.5 173.5t-126.5 544zM338 694q0 -276 68.5 -396t263.5 -120q197 0 265.5 118t68.5 398q0 276 -71 403.5t-263.5 127.5t-262 -126t-69.5 -405zM358 1765l494 191 l76 -211l-500 -168z" />
<glyph unicode="&#xd4;" horiz-adv-x="1343" d="M100 694.5q0 370.5 127 550.5t442.5 180t443.5 -180t128 -551q0 -373 -126 -545t-445 -172q-317 0 -443.5 173.5t-126.5 544zM301 1620l270 293h205l271 -293h-254l-117 115l-115 -115h-260zM338 694q0 -276 68.5 -396t263.5 -120q197 0 265.5 118t68.5 398 q0 276 -71 403.5t-263.5 127.5t-262 -126t-69.5 -405z" />
<glyph unicode="&#xd5;" horiz-adv-x="1325" d="M100 694.5q0 370.5 127 550.5t442.5 180t443.5 -180t128 -551q0 -373 -126 -545t-445 -172q-317 0 -443.5 173.5t-126.5 544zM293 1796q12 14 32.5 35.5t75 56.5t97.5 35q63 0 189 -48t149 -48q49 0 155 84l51 -170q-12 -14 -31.5 -34.5t-72.5 -55.5t-96 -35 q-55 0 -184.5 49t-157.5 49q-25 0 -64 -21.5t-65 -43.5l-27 -23zM338 694q0 -276 68.5 -396t263.5 -120q197 0 265.5 118t68.5 398q0 276 -71 403.5t-263.5 127.5t-262 -126t-69.5 -405z" />
<glyph unicode="&#xd6;" horiz-adv-x="1325" d="M92 694.5q0 370.5 127 550.5t442.5 180t443.5 -180t128 -551q0 -373 -126 -545t-445 -172q-317 0 -443.5 173.5t-126.5 544zM330 694q0 -276 68.5 -396t263.5 -120q197 0 265 118t68 398q0 276 -70.5 403.5t-263 127.5t-262 -126t-69.5 -405zM336 1649v233h215v-233h-215 zM778 1649v233h215v-233h-215z" />
<glyph unicode="&#xd7;" d="M117 209l309 303l-307 301l143 143l301 -307l305 312l142 -144l-312 -305l312 -303l-144 -143l-303 309l-303 -307z" />
<glyph unicode="&#xd8;" horiz-adv-x="1325" d="M92 694.5q0 370.5 127 550.5t442.5 180t443.5 -180t128 -551q0 -373 -126 -545t-445 -172q-317 0 -443.5 173.5t-126.5 544zM162 -170l850 1819l168 -72l-852 -1829zM330 694q0 -276 68.5 -396t263.5 -120q197 0 265 118t68 398q0 276 -70.5 403.5t-263 127.5t-262 -126 t-69.5 -405z" />
<glyph unicode="&#xd9;" horiz-adv-x="1308" d="M137 453v950h232v-950q0 -137 75.5 -204t206.5 -67q135 0 212 67.5t77 203.5v950h229v-950q0 -248 -129 -362t-389 -114q-256 0 -385 114t-129 362zM360 1729l76 210l494 -190l-70 -188z" />
<glyph unicode="&#xda;" horiz-adv-x="1314" d="M145 453v950h232v-950q0 -137 75.5 -204t206.5 -67q135 0 212 67.5t77 203.5v950h230v-950q0 -248 -129 -362t-390 -114q-256 0 -385 114t-129 362zM365 1765l493 191l76 -211l-500 -168z" />
<glyph unicode="&#xdb;" horiz-adv-x="1314" d="M145 453v950h232v-950q0 -137 75.5 -204t206.5 -67q135 0 212 67.5t77 203.5v950h230v-950q0 -248 -129 -362t-390 -114q-256 0 -385 114t-129 362zM289 1620l270 293h205l270 -293h-254l-116 115l-115 -115h-260z" />
<glyph unicode="&#xdc;" horiz-adv-x="1308" d="M137 453v950h232v-950q0 -137 75.5 -204t206.5 -67q135 0 212 67.5t77 203.5v950h229v-950q0 -248 -129 -362t-389 -114q-256 0 -385 114t-129 362zM338 1649v233h215v-233h-215zM780 1649v233h215v-233h-215z" />
<glyph unicode="&#xdd;" horiz-adv-x="1105" d="M6 1403h256l293 -539l291 539h256l-430 -797v-606h-230v606zM287 1765l493 191l76 -211l-500 -168z" />
<glyph unicode="&#xde;" horiz-adv-x="1128" d="M86 0v1417h231v-213h283q481 0 481 -475q0 -244 -121.5 -376t-359.5 -132h-283v-221h-231zM317 444h283q123 0 185.5 75t62.5 210q0 131 -60.5 193.5t-187.5 62.5h-283v-541z" />
<glyph unicode="&#xdf;" horiz-adv-x="1265" d="M156 0v1090q0 209 102 296t340 87q227 0 333.5 -73t106.5 -239q0 -109 -42 -164t-140 -98q-76 -35 -98.5 -53.5t-22.5 -44.5q0 -31 34 -56.5t153 -80.5q150 -72 205 -134.5t55 -183.5q0 -207 -93.5 -288t-320.5 -81q-53 0 -127 9.5t-121 19.5l-47 10l8 183 q188 -23 262 -23q117 0 162 34t45 103q0 63 -35.5 95t-166.5 92q-137 61 -190.5 121.5t-53.5 158.5q0 88 38 139.5t120 86.5q88 37 116.5 65.5t28.5 73.5q0 70 -46 99.5t-163 29.5q-125 0 -172 -43t-47 -154v-1077h-223z" />
<glyph unicode="&#xe0;" horiz-adv-x="1087" d="M61 303q0 156 83 225.5t255 83.5l263 23v74q0 80 -36 112.5t-112 32.5q-61 0 -157.5 -5t-161.5 -9l-66 -6l-8 159q221 53 409.5 53.5t271.5 -80.5t83 -257v-467q4 -45 24.5 -65.5t65.5 -29.5l-8 -170q-176 0 -273 76q-162 -76 -327 -76q-306 0 -306 326zM217 1339l70 193 l485 -207l-55 -147zM287 309q0 -150 125 -149q49 0 111.5 12t99.5 25l39 10v268l-236 -22q-139 -13 -139 -144z" />
<glyph unicode="&#xe1;" horiz-adv-x="1087" d="M61 303q0 156 83 225.5t255 83.5l263 23v74q0 80 -36 112.5t-112 32.5q-61 0 -157.5 -5t-161.5 -9l-66 -6l-8 159q221 53 409.5 53.5t271.5 -80.5t83 -257v-467q4 -45 24.5 -65.5t65.5 -29.5l-8 -170q-176 0 -273 76q-162 -76 -327 -76q-306 0 -306 326zM207 1325 l485 207l70 -193l-502 -161zM287 309q0 -150 125 -149q49 0 111.5 12t99.5 25l39 10v268l-236 -22q-139 -13 -139 -144z" />
<glyph unicode="&#xe2;" horiz-adv-x="1087" d="M61 303q0 156 83 225.5t255 83.5l263 23v74q0 80 -36 112.5t-112 32.5q-61 0 -157.5 -5t-161.5 -9l-66 -6l-8 159q221 53 409.5 53.5t271.5 -80.5t83 -257v-467q4 -45 24.5 -65.5t65.5 -29.5l-8 -170q-176 0 -273 76q-162 -76 -327 -76q-306 0 -306 326zM170 1198 l256 309h143l258 -309h-211l-116 145l-119 -145h-211zM287 309q0 -150 125 -149q49 0 111.5 12t99.5 25l39 10v268l-236 -22q-139 -13 -139 -144z" />
<glyph unicode="&#xe3;" horiz-adv-x="1075" d="M90 303q0 156 83 225.5t255 83.5l262 23v74q0 80 -36 112.5t-111 32.5q-61 0 -157.5 -5t-162.5 -9l-65 -6l-8 159q221 53 409.5 53.5t271 -80.5t82.5 -257v-467q4 -45 24.5 -65.5t66.5 -29.5l-9 -170q-176 0 -272 76q-162 -76 -328 -76q-305 0 -305 326zM150 1364l31 32 q19 19 72.5 52t96.5 33q45 0 144.5 -40t126.5 -40q23 0 61.5 18.5t67.5 34.5l26 19l49 -142l-31 -32q-19 -19 -72.5 -52t-94.5 -33q-45 0 -144.5 40t-130.5 40q-25 0 -62.5 -16t-64.5 -33l-26 -18zM315 309q0 -150 125 -149q49 0 111.5 12t99.5 25l39 10v268l-235 -22 q-140 -13 -140 -144z" />
<glyph unicode="&#xe4;" horiz-adv-x="1075" d="M90 303q0 156 83 225.5t255 83.5l262 23v74q0 80 -36 112.5t-111 32.5q-61 0 -157.5 -5t-162.5 -9l-65 -6l-8 159q221 53 409.5 53.5t271 -80.5t82.5 -257v-467q4 -45 24.5 -65.5t66.5 -29.5l-9 -170q-176 0 -272 76q-162 -76 -328 -76q-305 0 -305 326zM186 1257v234 h215v-234h-215zM315 309q0 -150 125 -149q49 0 111.5 12t99.5 25l39 10v268l-235 -22q-140 -13 -140 -144zM616 1257v234h215v-234h-215z" />
<glyph unicode="&#xe5;" horiz-adv-x="1087" d="M61 303q0 156 83 225.5t255 83.5l263 23v74q0 80 -36 112.5t-112 32.5q-61 0 -157.5 -5t-161.5 -9l-66 -6l-8 159q221 53 409.5 53.5t271.5 -80.5t83 -257v-467q4 -45 24.5 -65.5t65.5 -29.5l-8 -170q-176 0 -273 76q-162 -76 -327 -76q-306 0 -306 326zM287 309 q0 -150 125 -149q49 0 111.5 12t99.5 25l39 10v268l-236 -22q-139 -13 -139 -144zM297 1313q0 96 65.5 161.5t163.5 65.5q96 0 162 -65.5t66 -161.5q0 -98 -65.5 -164t-162.5 -66q-98 0 -163.5 66t-65.5 164zM449 1313q0 -35 22.5 -57.5t55 -22.5t55 22.5t22.5 57.5 q0 33 -22.5 55.5t-55 22.5t-55 -22.5t-22.5 -55.5z" />
<glyph unicode="&#xe6;" horiz-adv-x="1695" d="M109 303q0 164 87 231.5t273 81.5l240 19v65q0 63 -36 97t-98 34q-68 0 -165 -6l-164 -10l-66 -6l-6 197q260 39 414 38q190 0 268 -104q104 104 293 104q217 0 324.5 -114.5t107.5 -351.5l-14 -162h-635q2 -121 55 -177.5t178 -56.5l377 19l4 -176q-233 -47 -413 -48 q-207 0 -308 103l-55 -25q-184 -78 -369 -78q-143 0 -217.5 86t-74.5 240zM334 309q0 -139 110 -139q49 0 118 11.5t112 22.5t49 15q-16 96 -16 242l-234 -15q-139 -12 -139 -137zM932 590h428q0 139 -49 197.5t-162 58.5t-165 -61.5t-52 -194.5z" />
<glyph unicode="&#xe7;" horiz-adv-x="892" d="M84 524q0 276 101.5 399.5t328.5 123.5q49 0 126 -9.5t130 -19.5l51 -10l-8 -179q-162 16 -240 17q-156 0 -209 -69.5t-53 -252.5q0 -201 51.5 -273.5t212.5 -72.5l240 17l6 -181q-207 -37 -313 -37q-233 0 -328.5 125t-95.5 422zM375 -455l6 136q72 -4 115 -5 q82 0 82 64q0 55 -82 55h-66v207h98v-88q129 -2 186.5 -37t57.5 -137q0 -106 -56.5 -159.5t-156.5 -53.5z" />
<glyph unicode="&#xe8;" horiz-adv-x="1021" d="M80 502q0 545 442 545q217 0 324.5 -116t107.5 -353l-14 -160h-633q0 -125 53.5 -184.5t178.5 -59.5l379 19l4 -168q-236 -47 -416 -48q-227 0 -326.5 125.5t-99.5 399.5zM229 1339l70 193l485 -207l-55 -147zM305 590h428q0 152 -48 212t-163 60q-113 0 -164 -63.5 t-53 -208.5z" />
<glyph unicode="&#xe9;" horiz-adv-x="1021" d="M80 502q0 545 442 545q217 0 324.5 -116t107.5 -353l-14 -160h-633q0 -125 53.5 -184.5t178.5 -59.5l379 19l4 -168q-236 -47 -416 -48q-227 0 -326.5 125.5t-99.5 399.5zM244 1325l485 207l70 -193l-502 -161zM305 590h428q0 152 -48 212t-163 60q-113 0 -164 -63.5 t-53 -208.5z" />
<glyph unicode="&#xea;" horiz-adv-x="1021" d="M80 502q0 545 442 545q217 0 324.5 -116t107.5 -353l-14 -160h-633q0 -125 53.5 -184.5t178.5 -59.5l379 19l4 -168q-236 -47 -416 -48q-227 0 -326.5 125.5t-99.5 399.5zM197 1198l256 309h143l258 -309h-211l-117 145l-118 -145h-211zM305 590h428q0 152 -48 212 t-163 60q-113 0 -164 -63.5t-53 -208.5z" />
<glyph unicode="&#xeb;" horiz-adv-x="1038" d="M84 502q0 545 442 545q217 0 324.5 -116t107.5 -353l-14 -160h-633q0 -125 53.5 -184.5t178.5 -59.5l379 19l4 -168q-236 -47 -416 -48q-227 0 -326.5 125.5t-99.5 399.5zM199 1257v234h215v-234h-215zM309 590h428q0 152 -48 212t-163 60q-113 0 -164 -63.5t-53 -208.5z M629 1257v234h215v-234h-215z" />
<glyph unicode="&#xec;" horiz-adv-x="534" d="M-39 1339l70 193l485 -207l-55 -147zM160 0v1024h225v-1024h-225z" />
<glyph unicode="&#xed;" horiz-adv-x="534" d="M35 1325l485 207l70 -193l-502 -161zM160 0v1024h225v-1024h-225z" />
<glyph unicode="&#xee;" horiz-adv-x="544" d="M-66 1198l256 309h144l258 -309h-211l-117 145l-119 -145h-211zM160 0v1024h225v-1024h-225z" />
<glyph unicode="&#xef;" horiz-adv-x="534" d="M-59 1257v234h215v-234h-215zM160 0v1024h225v-1024h-225zM371 1257v234h215v-234h-215z" />
<glyph unicode="&#xf0;" horiz-adv-x="1085" d="M59 469q0 193 121 307.5t320 114.5q66 0 138.5 -15.5t113.5 -29.5l41 -15q-12 176 -147.5 272.5t-487.5 160.5l35 190q428 -55 633.5 -223t205.5 -516q0 -385 -117.5 -559t-384.5 -174q-229 0 -350 124.5t-121 362.5zM221 1133l524 395l93 -129l-523 -398zM299 469 q0 -281 231 -281q135 0 199 104.5t64 342.5q-133 57 -281 57q-96 0 -154.5 -64.5t-58.5 -158.5z" />
<glyph unicode="&#xf1;" horiz-adv-x="1155" d="M154 0h225v793q111 53 229 53q111 0 145.5 -68.5t34.5 -234.5v-543h224v549q0 264 -75 381t-280 117q-129 0 -280 -86v63h-223v-1024zM254 1364l32 32q19 19 72.5 52t96.5 33q45 0 144 -40t126 -40q23 0 61.5 18.5t65.5 34.5l29 19l49 -142l-32 -32q-19 -19 -72.5 -52 t-94.5 -33q-45 0 -144.5 40t-129.5 40q-25 0 -63 -16t-64 -33l-27 -18z" />
<glyph unicode="&#xf2;" horiz-adv-x="1083" d="M84 518q0 262 105.5 395.5t353.5 133.5q242 0 349 -135.5t107 -393.5q0 -266 -102 -403.5t-354 -137.5t-355.5 136.5t-103.5 404.5zM266 1339l70 193l485 -207l-55 -147zM311 518q0 -186 48.5 -268t183.5 -82t181 82t46 268q0 178 -51 258t-176 80q-131 0 -181.5 -78 t-50.5 -260z" />
<glyph unicode="&#xf3;" horiz-adv-x="1083" d="M84 518q0 -268 103.5 -404.5t355.5 -136.5t354 137.5t102 403.5q0 258 -107.5 393.5t-348.5 135.5q-248 0 -353.5 -133.5t-105.5 -395.5zM268 1325l486 207l69 -193l-501 -161zM311 518q0 182 50.5 260t181.5 78q125 0 176 -80t51 -258q0 -186 -46 -268t-181 -82 t-183.5 82t-48.5 268z" />
<glyph unicode="&#xf4;" horiz-adv-x="1083" d="M84 518q0 -268 103.5 -404.5t355.5 -136.5t354 137.5t102 403.5q0 258 -107.5 393.5t-348.5 135.5q-248 0 -353.5 -133.5t-105.5 -395.5zM203 1198l256 309h143l258 -309h-211l-117 145l-118 -145h-211zM311 518q0 182 50.5 260t181.5 78q125 0 176 -80t51 -258 q0 -186 -46 -268t-181 -82t-183.5 82t-48.5 268z" />
<glyph unicode="&#xf5;" horiz-adv-x="1083" d="M84 518q0 -268 103.5 -404.5t355.5 -136.5t354 137.5t102 403.5q0 258 -107.5 393.5t-348.5 135.5q-248 0 -353.5 -133.5t-105.5 -395.5zM197 1364l31 32q19 19 72.5 52t96.5 33q45 0 144.5 -40t126.5 -40q23 0 61.5 18.5t65.5 34.5l28 19l49 -142l-31 -32 q-19 -19 -72.5 -52t-94.5 -33q-45 0 -144.5 40t-130.5 40q-25 0 -62.5 -16t-64.5 -33l-26 -18zM311 518q0 182 50.5 260t181.5 78q125 0 176 -80t51 -258q0 -186 -46 -268t-181 -82t-183.5 82t-48.5 268z" />
<glyph unicode="&#xf6;" horiz-adv-x="1083" d="M84 518q0 -268 103.5 -404.5t355.5 -136.5t354 137.5t102 403.5q0 258 -107.5 393.5t-348.5 135.5q-248 0 -353.5 -133.5t-105.5 -395.5zM215 1257v234h215v-234h-215zM311 518q0 182 50.5 260t181.5 78q125 0 176 -80t51 -258q0 -186 -46 -268t-181 -82t-183.5 82 t-48.5 268zM645 1257v234h215v-234h-215z" />
<glyph unicode="&#xf7;" d="M201 489v226h725v-226h-725zM346 659v222h430v-222h-430zM451 45v244h221v-244h-221z" />
<glyph unicode="&#xf8;" horiz-adv-x="1083" d="M84 518q0 262 105.5 395.5t353.5 133.5q242 0 349 -135.5t107 -393.5q0 -266 -102 -403.5t-354 -137.5t-355.5 136.5t-103.5 404.5zM176 -174l103 246l22 26l354 887l9 29l92 227l139 -51l-94 -227l-19 -27l-356 -883l-8 -26l-103 -252zM176 -174l103 246l22 26l354 887 l9 29l92 227l139 -51l-94 -227l-19 -27l-356 -883l-8 -26l-103 -252zM311 518q0 -186 48.5 -268t183.5 -82t181 82t46 268q0 178 -51 258t-176 80q-131 0 -181.5 -78t-50.5 -260z" />
<glyph unicode="&#xf9;" horiz-adv-x="1146" d="M139 487v537h223v-539q0 -180 31 -243.5t144 -63.5q55 0 112.5 13.5t87.5 25.5l31 14v793h223v-1024h-221v63q-152 -86 -276 -86q-211 0 -283 113.5t-72 396.5zM291 1339l69 193l486 -207l-55 -147z" />
<glyph unicode="&#xfa;" horiz-adv-x="1146" d="M139 487q0 -283 72 -396.5t283 -113.5q55 0 124.5 21.5t110.5 42.5l41 22v-63h221v1024h-223v-793q-109 -53 -231 -53q-113 0 -144 63.5t-31 243.5v539h-223v-537zM303 1325l485 207l70 -193l-502 -161z" />
<glyph unicode="&#xfb;" horiz-adv-x="1146" d="M139 487q0 -283 72 -396.5t283 -113.5q55 0 124.5 21.5t110.5 42.5l41 22v-63h221v1024h-223v-793q-109 -53 -231 -53q-113 0 -144 63.5t-31 243.5v539h-223v-537zM201 1198l256 309h143l258 -309h-211l-117 145l-118 -145h-211z" />
<glyph unicode="&#xfc;" horiz-adv-x="1146" d="M139 487q0 -283 72 -396.5t283 -113.5q55 0 124.5 21.5t110.5 42.5l41 22v-63h221v1024h-223v-793q-109 -53 -231 -53q-113 0 -144 63.5t-31 243.5v539h-223v-537zM254 1257v234h215v-234h-215zM684 1257v234h215v-234h-215z" />
<glyph unicode="&#xfd;" horiz-adv-x="983" d="M14 1024h222l215 -834h55l217 834h221l-387 -1464h-221l115 440h-168zM215 1325l485 207l70 -193l-502 -161z" />
<glyph unicode="&#xfe;" horiz-adv-x="1101" d="M164 -440v1888h223v-459q141 55 254 55q211 0 304 -117.5t93 -402.5q0 -313 -110.5 -430t-388.5 -117q-25 0 -83.5 3.5t-68.5 3.5v-424h-223zM387 190q111 -12 152 -12q164 0 218 76t54 270q0 170 -47 242t-150 72q-43 0 -99 -8.5t-93 -16.5l-35 -8v-615z" />
<glyph unicode="&#xff;" horiz-adv-x="991" d="M31 1024h221l215 -834h55l217 834h222l-388 -1464h-221l115 440h-168zM180 1257v234h215v-234h-215zM610 1257v234h215v-234h-215z" />
<glyph unicode="&#x152;" horiz-adv-x="1933" d="M123 707q0 395 118.5 565t417.5 170q109 0 261 -25h876v-221h-649v-365h526v-221h-526v-389h649v-221h-872q-145 -23 -265 -23q-162 0 -267 44.5t-163.5 139.5t-82 224t-23.5 322zM360 707q0 -287 67 -395.5t269 -108.5q61 0 224 14v983q-168 14 -230 14 q-193 0 -261.5 -108t-68.5 -399z" />
<glyph unicode="&#x153;" horiz-adv-x="1794" d="M119 518q0 260 106.5 393t352.5 133q240 0 344 -143q104 143 327 143q217 0 324.5 -114.5t107.5 -351.5l-16 -162h-633q2 -121 55.5 -177.5t178.5 -56.5l376 19l5 -176q-233 -47 -414 -48q-223 0 -322 127q-102 -127 -333 -127q-252 0 -355.5 135.5t-103.5 405.5z M348 518q0 -182 47 -261t182.5 -79t182.5 80t47 258q0 172 -52.5 250t-176.5 78q-131 0 -180.5 -75t-49.5 -251zM1030 590h430q0 139 -49 197.5t-161.5 58.5t-166 -61.5t-53.5 -194.5z" />
<glyph unicode="&#x178;" horiz-adv-x="1153" d="M29 1403h256l293 -539l290 539h256l-430 -797v-606h-229v606zM256 1649v233h215v-233h-215zM698 1649v233h215v-233h-215z" />
<glyph unicode="&#x2c6;" horiz-adv-x="522" d="M-45 1198l256 309h143l258 -309h-211l-116 145l-119 -145h-211z" />
<glyph unicode="&#x2dc;" horiz-adv-x="522" d="M-51 1364l32 32q19 19 72 52t97 33q45 0 144 -40t126 -40q23 0 61.5 18.5t67.5 34.5l26 19l50 -142l-32 -32q-19 -19 -72.5 -52t-94.5 -33q-45 0 -144.5 40t-129.5 40q-25 0 -63 -16t-64 -33l-27 -18z" />
<glyph unicode="&#x3bc;" d="M137 -467v1491h223v-575q2 -158 34 -214.5t141 -56.5q43 0 100 13.5t94 25.5l37 14v791h223v-1022h-223v53q-160 -76 -274 -76q-86 0 -132 31v-475h-223z" />
<glyph unicode="&#x2000;" horiz-adv-x="976" />
<glyph unicode="&#x2001;" horiz-adv-x="1955" />
<glyph unicode="&#x2002;" horiz-adv-x="976" />
<glyph unicode="&#x2003;" horiz-adv-x="1955" />
<glyph unicode="&#x2004;" horiz-adv-x="651" />
<glyph unicode="&#x2005;" horiz-adv-x="487" />
<glyph unicode="&#x2006;" horiz-adv-x="325" />
<glyph unicode="&#x2007;" horiz-adv-x="325" />
<glyph unicode="&#x2008;" horiz-adv-x="243" />
<glyph unicode="&#x2009;" horiz-adv-x="391" />
<glyph unicode="&#x200a;" horiz-adv-x="108" />
<glyph unicode="&#x2010;" horiz-adv-x="901" d="M137 465v221h625v-221h-625z" />
<glyph unicode="&#x2011;" horiz-adv-x="901" d="M137 465v221h625v-221h-625z" />
<glyph unicode="&#x2012;" horiz-adv-x="901" d="M137 465v221h625v-221h-625z" />
<glyph unicode="&#x2013;" horiz-adv-x="1024" d="M0 457v205h1024v-205h-1024z" />
<glyph unicode="&#x2014;" horiz-adv-x="2048" d="M0 457v205h2048v-205h-2048z" />
<glyph unicode="&#x2018;" horiz-adv-x="348" d="M-16 1008l155 481h172l-92 -481h-235z" />
<glyph unicode="&#x2019;" horiz-adv-x="348" d="M35 1079l92 482h235l-155 -482h-172z" />
<glyph unicode="&#x201a;" horiz-adv-x="430" d="M16 -244l156 482h172l-92 -482h-236z" />
<glyph unicode="&#x201c;" horiz-adv-x="845" d="M92 1008l156 481h172l-92 -481h-236zM428 1008l156 481h172l-92 -481h-236z" />
<glyph unicode="&#x201d;" horiz-adv-x="962" d="M166 999l92 482h236l-156 -482h-172zM508 999l92 482h236l-156 -482h-172z" />
<glyph unicode="&#x201e;" horiz-adv-x="868" d="M43 -244l92 482h236l-156 -482h-172zM385 -244l92 482h236l-156 -482h-172z" />
<glyph unicode="&#x2022;" horiz-adv-x="1085" d="M295 209v579h496v-579h-496z" />
<glyph unicode="&#x2026;" horiz-adv-x="1523" d="M137 0v295h242v-295h-242zM659 0v295h242v-295h-242zM1182 0v295h241v-295h-241z" />
<glyph unicode="&#x202f;" horiz-adv-x="391" />
<glyph unicode="&#x2039;" horiz-adv-x="747" d="M150 418v166l428 317v-227l-236 -170l236 -191v-229z" />
<glyph unicode="&#x203a;" horiz-adv-x="747" d="M168 100v228l238 192l-238 170v228l428 -320v-166z" />
<glyph unicode="&#x205f;" horiz-adv-x="487" />
<glyph unicode="&#x20ac;" d="M68 418v176h114q-2 25 -2 82q0 51 2 76h-114v176h125q29 244 141 347t358 103q80 0 171 -9t143 -19l51 -11l-8 -202q-201 16 -326 16q-141 0 -203.5 -50t-85.5 -177h479v-174h-493q-2 -25 -2 -76q0 -57 2 -82h493v-176h-479q23 -119 87.5 -167t207.5 -48l320 18l6 -209 q-201 -35 -363 -35q-250 0 -360.5 103.5t-138.5 337.5h-125z" />
<glyph unicode="&#x2122;" horiz-adv-x="1085" d="M14 1169v138h410v-138h-107v-489h-151v489h-152zM479 678v629h185l106 -367l113 367h182v-629h-141v399l-99 -362h-102l-100 362v-399h-144z" />
<glyph unicode="&#xe000;" horiz-adv-x="1025" d="M0 1025h1025v-1025h-1025v1025z" />
<glyph unicode="&#xfb01;" horiz-adv-x="1216" d="M844 0v1024h223v-1024h-223zM844 1196v238h223v-238h-223zM43 831v193h119v66q0 219 63.5 301t225.5 82l223 -23l-4 -182q-100 4 -164 4q-70 0 -95.5 -40t-25.5 -145v-63h270v-193h-270v-831h-223v831h-119z" />
<glyph unicode="&#xfb02;" horiz-adv-x="1220" d="M846 0v1448h223v-1448h-223zM43 831v193h119v66q0 219 63.5 301t225.5 82l223 -23l-4 -182q-100 4 -164 4q-70 0 -95.5 -40t-25.5 -145v-63h270v-193h-270v-831h-223v831h-119z" />
<glyph unicode="&#xfb03;" horiz-adv-x="1910" d="M1539 0v1024h223v-1024h-223zM1539 1196v238h223v-238h-223zM737 831v193h119v66q0 219 63.5 301t225.5 82l223 -23l-4 -182q-100 4 -164 4q-70 0 -95.5 -40t-25.5 -145v-63h270v-193h-270v-831h-223v831h-119zM43 831v193h119v66q0 219 63.5 301t225.5 82l223 -23 l-4 -182q-100 4 -164 4q-70 0 -95.5 -40t-25.5 -145v-63h270v-193h-270v-831h-223v831h-119z" />
<glyph unicode="&#xfb04;" horiz-adv-x="1914" d="M1541 0v1448h223v-1448h-223zM737 831v193h119v66q0 219 63.5 301t225.5 82l223 -23l-4 -182q-100 4 -164 4q-70 0 -95.5 -40t-25.5 -145v-63h270v-193h-270v-831h-223v831h-119zM43 831v193h119v66q0 219 63.5 301t225.5 82l223 -23l-4 -182q-100 4 -164 4 q-70 0 -95.5 -40t-25.5 -145v-63h270v-193h-270v-831h-223v831h-119z" />
<glyph horiz-adv-x="481" />
</font>
</defs>
</svg>
